<?xml version="1.0" encoding="UTF-8"?>
<svg width="12px" height="17px" viewBox="0 0 12 17" version="1.1" xmlns="http://www.w3.org/2000/svg" xmlns:xlink="http://www.w3.org/1999/xlink">
    <!-- Generator: Sketch 44.1 (41455) - http://www.bohemiancoding.com/sketch -->
    <title>Combined Shape</title>
    <desc>Created with Sketch.</desc>
    <defs></defs>
    <g id="朋友圈" stroke="none" stroke-width="1" fill="none" fill-rule="evenodd">
        <g id="朋友圈-发布历史" transform="translate(-865.000000, -597.000000)" fill-rule="nonzero" fill="#8492A6">
            <g id="Group-8" transform="translate(770.000000, 134.000000)">
                <g id="位置" transform="translate(95.000000, 461.000000)">
                    <path d="M5.99998117,2.00692693 C2.69286898,2.00692693 0.00277277301,4.87806464 0.00277277301,8.40727923 C0.00277277301,11.7279494 4.95396762,17.7462344 5.51809811,18.4215548 L5.99932198,18.9981311 L6.48186421,18.4215548 C7.04601355,17.7462344 11.9971896,11.7279494 11.9971896,8.40727923 C11.9972084,4.87806466 9.30709334,2.00692693 5.99998117,2.00692693 Z M5.99934081,17.000871 C4.33503059,14.9062228 1.26494249,10.5899206 1.26494249,8.40662998 C1.26494249,5.58376627 3.38825264,3.28664603 5.99934081,3.28664603 C8.61042898,3.28664603 10.7337391,5.58374716 10.7337391,8.40662998 C10.7337391,10.5872854 7.66301069,14.9055735 5.99934081,17.000871 Z M5.95029745,10.3413706 C7.09098418,10.3413706 8.01569348,9.40380407 8.01569348,8.24725707 C8.01569348,7.09071008 7.09098418,6.1531435 5.95029745,6.1531435 C4.80961072,6.1531435 3.88490142,7.09071008 3.88490142,8.24725707 C3.88490142,9.40380407 4.80961072,10.3413706 5.95029745,10.3413706 Z" id="Combined-Shape"></path>
                </g>
            </g>
        </g>
    </g>
</svg>