<?xml version="1.0" standalone="no"?><!DOCTYPE svg PUBLIC "-//W3C//DTD SVG 1.1//EN" "http://www.w3.org/Graphics/SVG/1.1/DTD/svg11.dtd"><svg t="1503475321756" class="icon" style="" viewBox="0 0 1024 1024" version="1.1" xmlns="http://www.w3.org/2000/svg" p-id="11039" xmlns:xlink="http://www.w3.org/1999/xlink" width="16" height="16"><defs><style type="text/css"></style></defs><path d="M628.528 442.848q0-61.728-30.56-96.576t-84.288-34.848q-36 0-70.848 17.44t-62.848 48.288-45.44 78.272-17.44 102.848q0 64 30.56 98.848t86.016 34.848q54.848 0 100.576-38.016t70.016-94.848 24.288-116.288zM950.832 512q0 63.424-21.152 112.576t-56.288 77.152-75.136 42.56-82.848 15.712q-3.424 0-8.864 0.288t-9.44 0.288q-54.272 0-81.152-30.272-16-18.848-18.848-47.424-29.728 37.728-75.136 62.848t-99.136 25.152q-92 0-142.56-54.56t-50.56-154.016q0-89.728 37.728-165.728t102.272-120.288 140.576-44.288q49.728 0 88.576 20.288t60.576 56.864l1.152-10.848 6.272-32q0.576-3.424 3.136-6.848t5.44-3.424l67.424 0q2.848 0 7.424 6.272 2.848 2.848 1.728 9.152l-68.576 350.848q-2.848 13.728-2.848 27.424 0 22.272 7.136 29.728t25.44 7.424q16-0.576 32.576-3.136t41.728-13.728 44-28.576 32.576-51.136 13.728-78.272q0-166.848-99.424-266.272t-266.272-99.424q-74.272 0-142.016 29.152t-116.576 78.016-78.016 116.576-29.152 142.016 29.152 142.016 78.016 116.576 116.576 78.016 142.016 29.152q130.272 0 231.424-82.272 6.272-5.152 13.728-4.576t12 6.848l23.424 28q4.576 6.848 4 13.728-1.152 7.424-6.848 12.576-58.272 47.424-130.016 73.152t-147.712 25.728q-89.152 0-170.272-34.848t-140-93.728-93.728-140-34.848-170.272 34.848-170.272 93.728-140 140-93.728 170.272-34.848q196.576 0 317.728 121.152t121.152 317.728z" p-id="11040"></path></svg>