<?xml version="1.0" encoding="UTF-8"?>
<svg width="46px" height="46px" viewBox="0 0 46 46" version="1.1" xmlns="http://www.w3.org/2000/svg" xmlns:xlink="http://www.w3.org/1999/xlink">
    <!-- Generator: Sketch 44.1 (41455) - http://www.bohemiancoding.com/sketch -->
    <title>封禁</title>
    <desc>Created with Sketch.</desc>
    <defs></defs>
    <g id="Page-1" stroke="none" stroke-width="1" fill="none" fill-rule="evenodd">
        <g id="线-copy" transform="translate(-447.000000, -114.000000)" fill-rule="nonzero" fill="#3F3C40">
            <g id="1" transform="translate(100.000000, 97.000000)">
                <g id="封禁" transform="translate(347.000000, 17.000000)">
                    <path d="M23,21.5857864 L30.7758414,13.809945 C31.1676543,13.4181322 31.7991412,13.4143649 32.1923882,13.8076118 C32.5829124,14.1981361 32.5803927,14.8338208 32.190055,15.2241586 L24.4142136,23 L32.190055,30.7758414 C32.5818678,31.1676543 32.5856351,31.7991412 32.1923882,32.1923882 C31.8018639,32.5829124 31.1661792,32.5803927 30.7758414,32.190055 L23,24.4142136 L15.2241586,32.190055 C14.8323457,32.5818678 14.2008588,32.5856351 13.8076118,32.1923882 C13.4170876,31.8018639 13.4196073,31.1661792 13.809945,30.7758414 L21.5857864,23 L13.809945,15.2241586 C13.4181322,14.8323457 13.4143649,14.2008588 13.8076118,13.8076118 C14.1981361,13.4170876 14.8338208,13.4196073 15.2241586,13.809945 L23,21.5857864 Z M23,46 C10.2974508,46 0,35.7025492 0,23 C0,10.2974508 10.2974508,0 23,0 C35.7025492,0 46,10.2974508 46,23 C46,35.7025492 35.7025492,46 23,46 Z M23,44 C34.5979797,44 44,34.5979797 44,23 C44,11.4020203 34.5979797,2 23,2 C11.4020203,2 2,11.4020203 2,23 C2,34.5979797 11.4020203,44 23,44 Z" id="Combined-Shape"></path>
                </g>
            </g>
        </g>
    </g>
</svg>