<?xml version="1.0" standalone="no"?><!DOCTYPE svg PUBLIC "-//W3C//DTD SVG 1.1//EN" "http://www.w3.org/Graphics/SVG/1.1/DTD/svg11.dtd"><svg t="1523890199761" class="icon" style="" viewBox="0 0 1024 1024" version="1.1" xmlns="http://www.w3.org/2000/svg" p-id="2490" xmlns:xlink="http://www.w3.org/1999/xlink" width="48" height="48"><defs><style type="text/css"></style></defs><path d="M966.326463 757.668189c-104.58701-88.35635-155.427932-221.337037-155.427932-406.541133 0-52.322669-22.065552-106.972337-60.540841-149.934824-20.142759-22.491247-44.084031-41.310871-71.160713-55.93494-24.096814-13.014408-50.227961-22.434965-77.882811-28.093848 0.276293-2.437515 0.414439-4.88731 0.414439-7.344269 0-35.074843-28.51852-63.61076-63.573921-63.61076-35.056424 0-63.575967 28.535917-63.575967 63.61076 0 2.456958 0.13917 4.906753 0.415462 7.345292-27.655873 5.658883-53.78702 15.078417-77.882811 28.092825-27.076682 14.624069-51.018977 33.443693-71.160713 55.93494-38.474266 42.962487-60.540841 97.612155-60.540841 149.934824 0 185.202049-50.840922 318.182736-155.428955 406.541133l-5.443989 4.598738 0 7.126304c0 21.1149 8.337899 41.081651 23.477714 56.220443 15.138792 15.139815 35.105542 23.476691 56.220443 23.476691l210.682373 0c7.684006 72.241324 68.990281 128.698151 143.236262 128.698151 74.244958 0 135.549186-56.456826 143.234215-128.698151L892.071272 849.090365c21.1149 0 41.081651-8.336876 56.220443-23.476691 15.140839-15.139815 23.478737-35.106566 23.478737-56.220443l0-7.126304L966.326463 757.668189zM892.071272 818.392202 651.501194 818.392202l0 15.349593c0 62.500473-50.846038 113.348558-113.346511 113.348558-62.500473 0-113.348558-50.847062-113.348558-113.348558l0-15.349593-240.569054 0c-24.312732 0-45.172829-18.800181-48.52825-42.355667 45.787836-40.017412 80.646761-86.48063 106.424868-141.807726 35.815717-76.868715 53.977355-172.118056 53.977355-283.101753 0-85.839017 70.099545-187.389878 200.013383-206.516494l19.445888-2.862187-7.490601-18.171871c-1.88493-4.574179-2.800789-9.073656-2.800789-13.755282 0-18.147312 14.747889-32.911574 32.876782-32.911574 18.126846 0 32.874735 14.764262 32.874735 32.911574 0 4.686742-0.915859 9.18622-2.798742 13.755282l-7.489578 18.171871 19.445888 2.863211c129.913838 19.127639 200.013383 120.6785 200.013383 206.516494 0 110.98472 18.159592 206.234061 53.975309 283.101753 25.77913 55.32812 60.638055 101.791337 106.425891 141.807726C937.245124 799.592021 916.38605 818.392202 892.071272 818.392202z" p-id="2491" fill="#ffffff"></path><path d="M546.855856 894.453529c-34.285874 0-62.179155-27.89328-62.179155-62.179155 0-10.258645-8.036024-18.295692-18.294668-18.295692-5.880941 0-12.198833 4.120854-16.463973 7.577582-6.939039 5.624091-10.458189 11.217483-10.458189 16.622586 0 54.42147 44.274366 98.695836 98.694813 98.695836 5.907547 0 12.236696-4.100388 16.505929-7.53972 6.961552-5.608741 10.490935-11.202133 10.490935-16.623609C565.151547 902.474202 557.115524 894.453529 546.855856 894.453529zM537.237801 916.40447c-42.070164-0.485047-76.262918-34.346249-77.288271-76.287477 0.976234-1.125637 2.698458-2.606361 4.359284-3.808746 0.991584 20.440541 9.499351 39.593763 24.209378 54.30379 14.07046 14.069437 32.205493 22.465664 51.643194 24.036439C539.074635 915.422096 538.0237 916.064732 537.237801 916.40447z" p-id="2492" fill="#ffffff"></path></svg>