<?xml version="1.0" encoding="UTF-8"?>
<svg width="48px" height="28px" viewBox="0 0 48 28" version="1.1" xmlns="http://www.w3.org/2000/svg" xmlns:xlink="http://www.w3.org/1999/xlink">
    <!-- Generator: Sketch 44.1 (41455) - http://www.bohemiancoding.com/sketch -->
    <title>查看小号</title>
    <desc>Created with Sketch.</desc>
    <defs></defs>
    <g id="Page-1" stroke="none" stroke-width="1" fill="none" fill-rule="evenodd">
        <g id="线-copy" transform="translate(-445.000000, -243.000000)" fill-rule="nonzero" fill="#3F3C40">
            <g id="2" transform="translate(91.000000, 217.000000)">
                <g id="查看小号" transform="translate(354.000000, 26.000000)">
                    <path d="M24,28 C18.4148314,28 12.9499226,25.469511 7.81127117,21.2746586 C6.02915595,19.8198586 4.41317784,18.2631336 2.99053104,16.7056809 C2.49174376,16.1596299 2.05217697,15.6517623 1.67537331,15.1947157 C1.44663953,14.9172716 1.28796566,14.7161197 1.20294476,14.6039064 L0.74538181,14 L1.20294476,13.3960936 C1.28796566,13.2838803 1.44663953,13.0827284 1.67537331,12.8052843 C2.05217697,12.3482377 2.49174376,11.8403701 2.99053104,11.2943191 C4.41317784,9.73686638 6.02915595,8.18014139 7.81127117,6.72534137 C12.9499226,2.53048903 18.4148314,0 24,0 C29.5851686,0 35.0500774,2.53048903 40.1887288,6.72534137 C41.970844,8.18014139 43.5868222,9.73686638 45.009469,11.2943191 C45.5082562,11.8403701 45.947823,12.3482377 46.3246267,12.8052843 C46.5533605,13.0827284 46.7120343,13.2838803 46.7970552,13.3960936 L47.2546182,14 L46.7970552,14.6039064 C46.7120343,14.7161197 46.5533605,14.9172716 46.3246267,15.1947157 C45.947823,15.6517623 45.5082562,16.1596299 45.009469,16.7056809 C43.5868222,18.2631336 41.970844,19.8198586 40.1887288,21.2746586 C35.0500774,25.469511 29.5851686,28 24,28 Z M4.46720707,15.3568191 C5.82771174,16.8462414 7.37458086,18.3363914 9.07603046,19.7253414 C13.8904214,23.655489 18.9536872,26 24,26 C29.0463128,26 34.1095786,23.655489 38.9239695,19.7253414 C40.6254191,18.3363914 42.1722883,16.8462414 43.5327929,15.3568191 C43.9798466,14.8674039 44.3757515,14.411594 44.7173214,14 C44.3757515,13.588406 43.9798466,13.1325961 43.5327929,12.6431809 C42.1722883,11.1537586 40.6254191,9.66360861 38.9239695,8.27465863 C34.1095786,4.34451097 29.0463128,2 24,2 C18.9536872,2 13.8904214,4.34451097 9.07603046,8.27465863 C7.37458086,9.66360861 5.82771174,11.1537586 4.46720707,12.6431809 C4.0201534,13.1325961 3.62424848,13.588406 3.28267863,14 C3.62424848,14.411594 4.0201534,14.8674039 4.46720707,15.3568191 Z M24,19 C21.2385763,19 19,16.7614237 19,14 C19,11.2385763 21.2385763,9 24,9 C26.7614237,9 29,11.2385763 29,14 C29,16.7614237 26.7614237,19 24,19 Z M24,17 C25.6568542,17 27,15.6568542 27,14 C27,12.3431458 25.6568542,11 24,11 C22.3431458,11 21,12.3431458 21,14 C21,15.6568542 22.3431458,17 24,17 Z" id="Combined-Shape"></path>
                </g>
            </g>
        </g>
    </g>
</svg>