<?xml version="1.0" encoding="UTF-8"?>
<svg width="44px" height="34px" viewBox="0 0 44 34" version="1.1" xmlns="http://www.w3.org/2000/svg" xmlns:xlink="http://www.w3.org/1999/xlink">
    <!-- Generator: Sketch 44.1 (41455) - http://www.bohemiancoding.com/sketch -->
    <title>查看群资源</title>
    <desc>Created with Sketch.</desc>
    <defs></defs>
    <g id="Page-1" stroke="none" stroke-width="1" fill="none" fill-rule="evenodd">
        <g id="线-copy" transform="translate(-337.000000, -241.000000)" fill-rule="nonzero" fill="#3F3C40">
            <g id="2" transform="translate(91.000000, 217.000000)">
                <g id="查看群资源" transform="translate(246.000000, 24.000000)">
                    <path d="M0,6 C0,2.68708272 2.69017635,0 6.00365614,0 L37.9963439,0 C41.3122596,0 44,2.68536203 44,6 L44,28 C44,31.3129173 41.3098237,34 37.9963439,34 L6.00365614,34 C2.68774038,34 0,31.314638 0,28 L0,6 Z M2,6 L2,28 C2,30.2096719 3.79191372,32 6.00365614,32 L37.9963439,32 C40.205769,32 42,30.2078323 42,28 L42,6 C42,3.79032807 40.2080863,2 37.9963439,2 L6.00365614,2 C3.79423102,2 2,3.7921677 2,6 Z M7,8 C7,7.44771525 7.44463086,7 8.00087166,7 L21.9991283,7 C22.5518945,7 23,7.44386482 23,8 C23,8.55228475 22.5553691,9 21.9991283,9 L8.00087166,9 C7.4481055,9 7,8.55613518 7,8 Z M7,14 C7,13.4477153 7.4556644,13 7.99539757,13 L16.0046024,13 C16.5543453,13 17,13.4438648 17,14 C17,14.5522847 16.5443356,15 16.0046024,15 L7.99539757,15 C7.44565467,15 7,14.5561352 7,14 Z M7,20 C7,19.4477153 7.45097518,19 7.99077797,19 L12.009222,19 C12.5564136,19 13,19.4438648 13,20 C13,20.5522847 12.5490248,21 12.009222,21 L7.99077797,21 C7.44358641,21 7,20.5561352 7,20 Z M30.9509838,29.8815265 C30.6972029,29.8815265 30.4444252,29.7849558 30.2508295,29.5928097 L26.2896412,25.645354 C25.9034529,25.2600664 25.9034529,24.6348451 26.2896412,24.2495575 C26.6768326,23.8642699 27.3037616,23.8642699 27.6899498,24.2495575 L30.9509838,27.499115 L37.1821566,21.2897124 C37.5683449,20.9034292 38.1952739,20.9034292 38.5824653,21.2897124 C38.9686535,21.675 38.9686535,22.2992257 38.5824653,22.6845133 L31.6511381,29.5928097 C31.4575424,29.7849558 31.2037616,29.8815265 30.9509838,29.8815265 Z" id="Combined-Shape"></path>
                </g>
            </g>
        </g>
    </g>
</svg>