<?xml version="1.0" encoding="UTF-8"?>
<svg width="44px" height="52px" viewBox="0 0 44 52" version="1.1" xmlns="http://www.w3.org/2000/svg" xmlns:xlink="http://www.w3.org/1999/xlink">
    <!-- Generator: Sketch 44.1 (41455) - http://www.bohemiancoding.com/sketch -->
    <title>清除设备</title>
    <desc>Created with Sketch.</desc>
    <defs></defs>
    <g id="Page-1" stroke="none" stroke-width="1" fill="none" fill-rule="evenodd">
        <g id="线-copy" transform="translate(-555.000000, -113.000000)" fill-rule="nonzero" fill="#3F3C40">
            <g id="1" transform="translate(100.000000, 97.000000)">
                <g id="清除设备" transform="translate(480.000000, 40.000000) rotate(-330.000000) translate(-480.000000, -40.000000) translate(459.000000, 15.000000)">
                    <path d="M30,48 L32,48 C34.2101876,48 36,46.2127252 36,44.0078595 L36,28 L6,28 L6,44.0078595 C6,46.215118 7.78880848,48 10,48 L12,48 L12,39.9953976 C12,39.4456547 12.4438648,39 13,39 C13.5522847,39 14,39.4556644 14,39.9953976 L14,48 L20,48 L20,39.9953976 C20,39.4456547 20.4438648,39 21,39 C21.5522847,39 22,39.4556644 22,39.9953976 L22,48 L28,48 L28,39.9953976 C28,39.4456547 28.4438648,39 29,39 C29.5522847,39 30,39.4556644 30,39.9953976 L30,48 L30,48 Z M38,28 L38,44.0078595 C38,47.3179304 35.3141223,50 32,50 L10,50 C6.6852216,50 4,47.3206725 4,44.0078595 L4,28 L3.00368123,28 C0.574664336,28 -0.575949298,26.0027068 0.646498763,23.9070815 L5.13329177,16.2154364 C5.86459752,14.9617694 7.543431,14 8.99017755,14 L15,14 L15,4.00579834 C15,1.85115668 16.3204894,-2.84217094e-14 18.1452509,-2.84217094e-14 L23.8547491,-2.84217094e-14 C25.6777449,-2.84217094e-14 27,1.85397423 27,4.00579834 L27,14 L33.0025862,14 C34.4613176,14 36.1330584,14.957751 36.8667082,16.2154364 L41.3535012,23.9070815 C42.5764119,26.0034998 41.4221078,28 38.9963188,28 L38,28 L38,28 Z M17,16 L8.99017755,16 C8.25391263,16 7.2333034,16.5846862 6.86084957,17.2231784 L2.37405657,24.9148236 C1.93009876,25.6758941 2.11681177,26 3.00368123,26 L38.9963188,26 C39.8816896,26 40.0694867,25.6751835 39.6259434,24.9148236 L35.1391504,17.2231784 C34.7643448,16.5806545 33.7508207,16 33.0025862,16 L25,16 L25,4.00579834 C25,2.84153415 24.3998176,2 23.8547491,2 L18.1452509,2 C17.5983134,2 17,2.83875861 17,4.00579834 L17,16 Z" id="Combined-Shape"></path>
                </g>
            </g>
        </g>
    </g>
</svg>