<?xml version="1.0" encoding="UTF-8"?>
<svg width="15px" height="15px" viewBox="0 0 15 15" version="1.1" xmlns="http://www.w3.org/2000/svg" xmlns:xlink="http://www.w3.org/1999/xlink">
    <!-- Generator: Sketch 44.1 (41455) - http://www.bohemiancoding.com/sketch -->
    <title>close icon</title>
    <desc>Created with Sketch.</desc>
    <defs></defs>
    <g id="Page-2" stroke="none" stroke-width="1" fill="none" fill-rule="evenodd">
        <g id="云控平台-绑定状态--已绑定群" transform="translate(-1195.000000, -297.000000)" fill="#C0CCDA">
            <g id="嵌套表单-dialog-copy" transform="translate(841.000000, 270.000000)">
                <path d="M361.366684,32.95247 L355.704033,27.2898196 C355.324672,26.9104586 354.68614,26.9050914 354.295616,27.2956157 C353.902369,27.6888627 353.902496,28.31671 354.28982,28.7040332 L359.95247,34.3666835 L354.28982,40.0293338 C353.910459,40.4086949 353.905091,41.047227 354.295616,41.4377513 C354.688863,41.8309983 355.31671,41.8308706 355.704033,41.4435474 L361.366684,35.7808971 L367.029334,41.4435474 C367.408695,41.8229085 368.047227,41.8282756 368.437751,41.4377513 C368.830998,41.0445044 368.830871,40.4166571 368.443547,40.0293338 L362.780897,34.3666835 L368.443547,28.7040332 C368.822908,28.3246722 368.828276,27.68614 368.437751,27.2956157 C368.044504,26.9023688 367.416657,26.9024964 367.029334,27.2898196 L361.366684,32.95247 Z" id="close-icon"></path>
            </g>
        </g>
    </g>
</svg>