<?xml version="1.0" standalone="no"?><!DOCTYPE svg PUBLIC "-//W3C//DTD SVG 1.1//EN" "http://www.w3.org/Graphics/SVG/1.1/DTD/svg11.dtd"><svg t="1501148136953" class="icon" style="" viewBox="0 0 1024 1024" version="1.1" xmlns="http://www.w3.org/2000/svg" p-id="6544" xmlns:xlink="http://www.w3.org/1999/xlink" width="16" height="16"><defs><style type="text/css"></style></defs><path d="M512 456c15.5 0 28-12.5 28-28V92c0-15.5-12.5-28-28-28s-28 12.5-28 28v336c0 15.5 12.5 28 28 28z" fill="#030000" p-id="6545"></path><path d="M811.2 179c-11.1-9.9-28-9.4-38.5 1.1-11.4 11.4-10.9 30 1.1 40.7C853.4 292.3 903.7 395.7 904 511c0.6 216-175.2 392.6-391.3 393-216.8 0.4-392.7-175.3-392.7-392 0-115.8 50.4-219.5 130.2-291.3 12-10.7 12.4-29.3 1.1-40.7-10.5-10.5-27.4-11.1-38.5-1.1C121.3 261.1 63.7 380.3 64 513.1 64.6 760.5 264.6 960 512 960s448-200.6 448-448c0-132.3-57.5-251.1-148.8-333z" fill="#030000" p-id="6546"></path></svg>