<?xml version="1.0" standalone="no"?><!DOCTYPE svg PUBLIC "-//W3C//DTD SVG 1.1//EN" "http://www.w3.org/Graphics/SVG/1.1/DTD/svg11.dtd"><svg t="1498730659168" class="icon" style="" viewBox="0 0 1024 1024" version="1.1" xmlns="http://www.w3.org/2000/svg" p-id="1606" xmlns:xlink="http://www.w3.org/1999/xlink" width="16" height="16"><defs><style type="text/css"></style></defs><path d="M732.445226 345.4518l-101.920274-112.929002 51.002604-56.465013c16.85897-18.684548 44.249807-18.684548 61.149708 0l40.768519 45.176922c16.902972 18.707061 16.902972 49.068556 0 67.77357L732.445226 345.4518 732.445226 345.4518zM436.315762 673.554466l-101.961206-112.930025 277.160437-304.642348 101.919251 112.950492L436.315762 673.554466 436.315762 673.554466zM252.475733 766.162654l62.011332-183.539176 101.103676 112.024399L252.475733 766.162654 252.475733 766.162654zM710.253808 804.758694c14.278191 0 25.844621 12.793374 25.844621 28.597315 0 15.782451-11.56643 28.598338-25.844621 28.598338L253.679142 861.954347c-14.234189 0-25.802666-12.815887-25.802666-28.598338 0-15.803941 11.568477-28.597315 25.802666-28.597315L710.253808 804.758694 710.253808 804.758694z" p-id="1607"></path></svg>