<?xml version="1.0" encoding="UTF-8"?>
<svg width="13px" height="13px" viewBox="0 0 13 13" version="1.1" xmlns="http://www.w3.org/2000/svg" xmlns:xlink="http://www.w3.org/1999/xlink">
    <!-- Generator: Sketch 44.1 (41455) - http://www.bohemiancoding.com/sketch -->
    <title>Shape</title>
    <desc>Created with Sketch.</desc>
    <defs></defs>
    <g id="Page-2" stroke="none" stroke-width="1" fill="none" fill-rule="evenodd">
        <g id="云控平台-绑定状态--已绑定群" transform="translate(-1169.000000, -236.000000)" fill-rule="nonzero" fill="#99A9BF">
            <g id="小号池" transform="translate(1000.000000, 111.000000)">
                <g id="Group-6-Copy" transform="translate(0.000000, 106.000000)">
                    <path d="M173.039437,25.8991361 C173.031036,25.9098945 173.022544,25.9210667 173.018796,25.9346317 L172.366707,28.3100305 C172.328668,28.4483428 172.367704,28.5973236 172.470669,28.7023891 C172.547763,28.7771584 172.649335,28.8182671 172.757389,28.8182671 C172.793111,28.8182671 172.828906,28.8140572 172.864121,28.8047021 L175.237721,28.1614635 C175.241523,28.1614635 175.243443,28.1647018 175.246195,28.1647018 C175.273498,28.1647018 175.300312,28.1549329 175.320536,28.1343335 L181.667506,21.828476 C181.856057,21.6409772 181.959458,21.3854556 181.959458,21.1074456 C181.959458,20.792393 181.825025,20.4775562 181.589508,20.2442351 L180.990106,19.6476643 C180.755023,19.4136416 180.437687,19.279773 180.12084,19.279773 C179.841182,19.279773 179.583957,19.3825897 179.394989,19.5696568 L173.048852,25.8772235 C173.042279,25.8831963 173.044181,25.8921197 173.039437,25.8991361 L173.039437,25.8991361 Z M181.046486,21.2109461 L180.416105,21.8368956 L179.394065,20.8052563 L180.015593,20.1876724 C180.113833,20.0896233 180.304231,20.1038899 180.417028,20.2164035 L181.016847,20.8129743 C181.079438,20.8750962 181.11516,20.9577452 181.11516,21.0394769 C181.114726,21.1066002 181.090682,21.1673187 181.046486,21.2109461 L181.046486,21.2109461 Z M174.168208,25.9981567 L178.74806,21.4470737 L179.770607,22.4794326 L175.199247,27.0216643 L174.168208,25.9981567 L174.168208,25.9981567 Z M173.333724,27.8433344 L173.66473,26.636268 L174.547574,27.5135293 L173.333724,27.8433344 L173.333724,27.8433344 Z M181.448483,23.7099048 C181.208222,23.7099048 181.011253,23.9040062 181.010348,24.1459627 L181.010348,30.0250456 C181.010348,30.3334239 180.758355,30.5838184 180.447591,30.5838184 L170.438829,30.5838184 C170.128554,30.5838184 169.875565,30.3334239 169.875565,30.0250456 L169.875565,20.4291972 C169.875565,20.1206211 170.128483,19.8700111 170.438829,19.8700111 L176.885036,19.8700111 C177.126636,19.8700111 177.322756,19.6749921 177.322756,19.4348706 C177.322756,19.1952888 177.126636,19 176.885036,19 L170.372056,19 C169.61566,19 169,19.6112511 169,20.3633514 L169,30.0914673 C169,30.8434771 169.61566,31.4545307 170.372056,31.4545307 L180.513857,31.4545307 C181.270741,31.4545307 181.88613,30.8435492 181.88613,30.0914673 L181.88613,24.1431562 C181.885207,23.9040062 181.688726,23.7099048 181.448483,23.7099048 L181.448483,23.7099048 Z" id="Shape"></path>
                </g>
            </g>
        </g>
    </g>
</svg>