<?xml version="1.0" encoding="UTF-8"?>
<svg width="24px" height="24px" viewBox="0 0 24 24" version="1.1" xmlns="http://www.w3.org/2000/svg" xmlns:xlink="http://www.w3.org/1999/xlink">
    <!-- Generator: Sketch 44.1 (41455) - http://www.bohemiancoding.com/sketch -->
    <title>Shape</title>
    <desc>Created with Sketch.</desc>
    <defs></defs>
    <g id="Page-2" stroke="none" stroke-width="1" fill="none" fill-rule="evenodd">
        <g id="云控平台-绑定状态--未绑定" transform="translate(-357.000000, -369.000000)" fill="#8492A6">
            <g id="文本" transform="translate(340.000000, 361.000000)">
                <g id="Group-5">
                    <path d="M28.9975013,32 C25.7924668,32 22.77897,30.7518616 20.5133895,28.4871873 C18.2469303,26.219465 16.9994235,23.2062702 17.0000002,20.0001098 C17.0000002,16.7943065 18.2483857,13.7805076 20.5152019,11.5139385 C22.7811119,9.24816587 25.7943067,8 28.9995883,8 C32.2059957,8 35.2189159,9.24816587 37.4859793,11.5137463 C42.1643289,16.1939083 42.1637522,23.8066958 37.4859793,28.4848257 C35.2183667,30.7509279 32.2039088,32 28.9975013,32 L28.9975013,32 L28.9975013,32 Z M28.9995883,9.56401749 C26.2116801,9.56401749 23.5915011,10.6491224 21.6206002,12.6196664 C19.6493698,14.5899906 18.5636882,17.211625 18.5636882,20.0001098 C18.5633586,22.7889242 19.6482164,25.410229 21.6187878,27.3812398 C23.5894691,29.3508776 26.2104169,30.4372182 28.9975013,30.4372182 C31.7863157,30.4372182 34.4081697,29.3503284 36.3800043,27.3788508 C40.4485917,23.3106753 40.4485917,16.6892972 36.3800043,12.6197762 C34.4085267,10.649095 31.787826,9.56401749 28.9995883,9.56401749 L28.9995883,9.56401749 L28.9995883,9.56401749 Z M24.7354815,23.2750864 C24.7354815,23.2750864 26.141381,25.5225154 28.9971992,25.5225154 C31.8530174,25.5225154 33.7257468,23.2750864 33.7257468,23.2750864 C33.7257468,23.2750864 34.7872081,23.271544 34.786961,24.398746 C34.786961,24.398746 32.9461408,27.0207098 28.9971717,27.0207098 C25.0478182,27.0207098 23.7626904,24.398746 23.7626904,24.398746 C23.7626904,24.398746 23.7237788,23.2750864 24.7355639,23.2750864 L24.7354815,23.2750864 Z M25.5103917,16.1414861 C24.7011558,16.1414861 24.0408112,16.7996339 24.0408112,17.6112589 C24.0408112,18.4217854 24.7011284,19.0801529 25.5103917,19.0801529 C26.3232799,19.0801529 26.9799723,18.4217854 26.9799723,17.6112589 C26.9799448,16.7996339 26.3232799,16.1414861 25.5103917,16.1414861 L25.5103917,16.1414861 L25.5103917,16.1414861 Z M33.039754,16.1414861 C32.2293372,16.1414861 31.5712169,16.7996339 31.5712169,17.6112589 C31.5712169,18.4217854 32.2293647,19.0801529 33.039754,19.0801529 C33.8517359,19.0801529 34.5095267,18.4217854 34.5095267,17.6112589 C34.5095267,16.7996339 33.8517359,16.1414861 33.039754,16.1414861 L33.039754,16.1414861 L33.039754,16.1414861 Z" id="Shape"></path>
                </g>
            </g>
        </g>
    </g>
</svg>