<?xml version="1.0" encoding="UTF-8"?>
<svg width="16px" height="13px" viewBox="0 0 16 13" version="1.1" xmlns="http://www.w3.org/2000/svg" xmlns:xlink="http://www.w3.org/1999/xlink">
    <!-- Generator: Sketch 45.2 (43514) - http://www.bohemiancoding.com/sketch -->
    <title>Combined Shape</title>
    <desc>Created with Sketch.</desc>
    <defs></defs>
    <g id="1.6" stroke="none" stroke-width="1" fill="none" fill-rule="evenodd">
        <g id="云控平台-绑定状态--已绑定群" transform="translate(-1181.000000, -236.000000)" fill-rule="nonzero" fill="#99A9BF">
            <path d="M1195,241.5 L1195,241.009369 C1195,240.45191 1195.3125,240.3125 1195.71076,240.710757 L1196.78596,241.785965 C1196.90417,241.904173 1196.90354,242.096464 1196.78596,242.214035 L1195.71076,243.289243 C1195.31822,243.681783 1195,243.556647 1195,242.990631 L1195,242.5 C1194.99985,242.5 1194.99971,242.5 1194.99956,242.5 L1188.00044,242.5 C1187.72405,242.5 1187.5,242.268066 1187.5,242 C1187.5,241.723858 1187.7308,241.5 1188.00044,241.5 L1194.99956,241.5 C1194.99971,241.5 1194.99985,241.5 1195,241.5 Z M1193,246.5 C1193,246.223858 1193.22386,246 1193.5,246 C1193.77614,246 1194,246.223858 1194,246.5 L1194,247.494212 C1194,248.323607 1193.32261,249 1192.49753,249 L1182.50247,249 C1181.67453,249 1181,248.322245 1181,247.497527 L1181,237.502473 C1181,236.67453 1181.67775,236 1182.50247,236 L1192.49753,236 C1193.329,236 1194,236.671496 1194,237.506403 L1194,238.5 C1194,238.776142 1193.77614,239 1193.5,239 C1193.22386,239 1193,238.776142 1193,238.5 L1193,237.506403 C1193,237.223616 1192.77655,237 1192.49753,237 L1182.50247,237 C1182.22897,237 1182,237.227885 1182,237.502473 L1182,247.497527 C1182,247.771025 1182.22789,248 1182.50247,248 L1192.49753,248 C1192.77066,248 1193,247.770994 1193,247.494212 L1193,246.5 Z" id="Combined-Shape"></path>
        </g>
    </g>
</svg>