<?xml version="1.0" encoding="UTF-8"?>
<svg width="52px" height="46px" viewBox="0 0 52 46" version="1.1" xmlns="http://www.w3.org/2000/svg" xmlns:xlink="http://www.w3.org/1999/xlink">
    <!-- Generator: Sketch 44.1 (41455) - http://www.bohemiancoding.com/sketch -->
    <title>好友列表</title>
    <desc>Created with Sketch.</desc>
    <defs></defs>
    <g id="Page-1" stroke="none" stroke-width="1" fill="none" fill-rule="evenodd">
        <g id="线-copy" transform="translate(-334.000000, -114.000000)" fill-rule="nonzero" fill="#3F3C40">
            <g id="1" transform="translate(100.000000, 97.000000)">
                <g id="好友列表" transform="translate(234.000000, 17.000000)">
                    <path d="M17.5412382,24.2845857 C13.632799,22.0427528 11,17.828838 11,13 C11,5.82029825 16.8202983,0 24,0 C31.1797017,0 37,5.82029825 37,13 C37,17.8288549 34.3671825,22.0427824 30.4587207,24.2846093 C40.4132519,25.9366748 48,34.5827663 48,45.0090152 C48,45.5613 47.5522847,46.0090152 47,46.0090152 C46.4477153,46.0090152 46,45.5613 46,45.0090152 C46,34.5059545 37.4919245,26 26.9909848,26 L21.0090152,26 C10.5059545,26 2,34.5080755 2,45.0090152 C2,45.5613 1.55228475,46.0090152 1,46.0090152 C0.44771525,46.0090152 0,45.5613 0,45.0090152 C0,34.5846847 7.58512922,25.9367928 17.5412382,24.2845857 L17.5412382,24.2845857 Z M24,24 C30.0751322,24 35,19.0751322 35,13 C35,6.92486775 30.0751322,2 24,2 C17.9248678,2 13,6.92486775 13,13 C13,19.0751322 17.9248678,24 24,24 Z M42,13 C42,12.4477153 42.4556644,12 42.9953976,12 L51.0046024,12 C51.5543453,12 52,12.4438648 52,13 C52,13.5522847 51.5443356,14 51.0046024,14 L42.9953976,14 C42.4456547,14 42,13.5561352 42,13 Z M38,19 C38,18.4477153 38.4499488,18 39.0068455,18 L50.9931545,18 C51.5492199,18 52,18.4438648 52,19 C52,19.5522847 51.5500512,20 50.9931545,20 L39.0068455,20 C38.4507801,20 38,19.5561352 38,19 Z M44,25 C44,24.4477153 44.4530363,24 44.9970301,24 L51.0029699,24 C51.5536144,24 52,24.4438648 52,25 C52,25.5522847 51.5469637,26 51.0029699,26 L44.9970301,26 C44.4463856,26 44,25.5561352 44,25 Z" id="Combined-Shape"></path>
                </g>
            </g>
        </g>
    </g>
</svg>