<?xml version="1.0" encoding="UTF-8"?>
<svg width="32px" height="22px" viewBox="0 0 32 22" version="1.1" xmlns="http://www.w3.org/2000/svg" xmlns:xlink="http://www.w3.org/1999/xlink">
    <!-- Generator: Sketch 44.1 (41455) - http://www.bohemiancoding.com/sketch -->
    <title>云</title>
    <desc>Created with Sketch.</desc>
    <defs></defs>
    <g id="1.4" stroke="none" stroke-width="1" fill="none" fill-rule="evenodd">
        <g id="群聊导出" transform="translate(-40.000000, -10.000000)" fill-rule="nonzero" fill="#28A3FE">
            <g id="Navigationbar">
                <g id="云" transform="translate(40.000000, 10.000000)">
                    <path d="M22.5750583,10.1466216 C21.7581583,6.07136813 18.2582167,3 14,3 C10.6167833,3 7.70005833,4.94894438 6.24184167,7.7840625 C2.74178333,8.13855563 0,11.1505069 0,14.8125 C0,18.7103888 3.15023333,21.9 7,21.9 L22.1666667,21.9 C25.375,21.9 28,19.2421875 28,15.9936909 C28,12.8635556 25.6085083,10.32375 22.5750583,10.1466216 Z M22.1666667,19.5375 L7,19.5375 C4.4331,19.5375 2.33333333,17.4114862 2.33333333,14.8125 C2.33333333,12.21375 4.4331,10.0875 7,10.0875 L7.8169,10.0875 C8.57511667,7.370625 11.0252333,5.3625 14,5.3625 C17.5581,5.3625 20.4166667,8.2565625 20.4166667,11.859375 L20.4166667,12.45 L22.1666667,12.45 C24.09155,12.45 25.6666667,14.0448647 25.6666667,15.99375 C25.6666667,17.9426944 24.09155,19.5375 22.1666667,19.5375 Z M28,9 C28,9.55228475 27.5522847,10 27,10 C26.4477153,10 26,9.55228475 26,9 C26,7.34314575 24.6568542,6 23,6 C22.4477153,6 22,5.55228475 22,5 C22,4.44771525 22.4477153,4 23,4 C25.7614237,4 28,6.23857625 28,9 Z M32,8 C32,8.55228475 31.5522847,9 31,9 C30.4477153,9 30,8.55228475 30,8 C30,4.6862915 27.3137085,2 24,2 C23.4477153,2 23,1.55228475 23,1 C23,0.44771525 23.4477153,0 24,0 C28.418278,0 32,3.581722 32,8 Z" id="Combined-Shape"></path>
                </g>
            </g>
        </g>
    </g>
</svg>