<?xml version="1.0" encoding="UTF-8"?>
<svg width="15px" height="14px" viewBox="0 0 15 14" version="1.1" xmlns="http://www.w3.org/2000/svg" xmlns:xlink="http://www.w3.org/1999/xlink">
    <!-- Generator: Sketch 44.1 (41455) - http://www.bohemiancoding.com/sketch -->
    <title>Combined Shape</title>
    <desc>Created with Sketch.</desc>
    <defs></defs>
    <g id="1.4" stroke="none" stroke-width="1" fill="none" fill-rule="evenodd">
        <g id="个人模板" transform="translate(-966.000000, -382.000000)" fill-rule="nonzero" fill="#99A9BF">
            <g id="Group-2-Copy-3" transform="translate(430.000000, 371.000000)">
                <path d="M546.470438,13.353041 L547.403294,12.4201859 C547.728181,12.0952987 547.728181,11.5685525 547.403294,11.2436654 C547.078406,10.9187782 546.55166,10.9187782 546.226773,11.2436654 L543.285472,14.1849667 L546.226773,17.126268 C546.55166,17.4511552 547.078406,17.4511552 547.403294,17.126268 C547.728181,16.8013808 547.728181,16.2746346 547.403294,15.9497475 L546.470438,15.0168923 L550.140299,15.0168923 C550.592567,15.0168923 550.974662,14.6444265 550.974662,14.1849667 C550.974662,13.7223036 550.601105,13.353041 550.140299,13.353041 L546.470438,13.353041 Z M536,24.1680744 C536,23.7086145 536.370162,23.3361487 536.826433,23.3361487 L550.148229,23.3361487 C550.604655,23.3361487 550.974662,23.7054112 550.974662,24.1680744 C550.974662,24.6275342 550.604499,25 550.148229,25 L536.826433,25 C536.370007,25 536,24.6307375 536,24.1680744 Z M536,19.1765205 C536,18.7170607 536.370162,18.3445949 536.826433,18.3445949 L550.148229,18.3445949 C550.604655,18.3445949 550.974662,18.7138574 550.974662,19.1765205 C550.974662,19.6359804 550.604499,20.0084462 550.148229,20.0084462 L536.826433,20.0084462 C536.370007,20.0084462 536,19.6391836 536,19.1765205 Z M536,14.1849667 C536,13.7255068 536.376893,13.353041 536.829455,13.353041 L541.82595,13.353041 C542.284045,13.353041 542.655405,13.7223036 542.655405,14.1849667 C542.655405,14.6444265 542.278513,15.0168923 541.82595,15.0168923 L536.829455,15.0168923 C536.37136,15.0168923 536,14.6476298 536,14.1849667 Z" id="Combined-Shape"></path>
            </g>
        </g>
    </g>
</svg>