<?xml version="1.0" standalone="no"?><!DOCTYPE svg PUBLIC "-//W3C//DTD SVG 1.1//EN" "http://www.w3.org/Graphics/SVG/1.1/DTD/svg11.dtd"><svg t="1503476869315" class="icon" style="" viewBox="0 0 1024 1024" version="1.1" xmlns="http://www.w3.org/2000/svg" p-id="13983" xmlns:xlink="http://www.w3.org/1999/xlink" width="16" height="16"><defs><style type="text/css"></style></defs><path d="M512 5.9136c-279.48544 0-506.09152 226.59072-506.09152 506.09664 0 279.51616 226.60608 506.08128 506.09152 506.08128 279.53664 0 506.09152-226.56512 506.09152-506.08128 0-279.50592-226.55488-506.09664-506.09152-506.09664z m0 965.66784c-252.86144 0-458.58304-206.72512-458.58304-459.58656S259.13856 53.40672 512 53.40672c252.85632 0 458.60864 205.73184 458.60864 458.58816S764.85632 971.58144 512 971.58144z" p-id="13984"></path><path d="M271.488 512m-61.40928 0a61.40928 61.40928 0 1 0 122.81856 0 61.40928 61.40928 0 1 0-122.81856 0Z" p-id="13985"></path><path d="M512 512m-61.40928 0a61.40928 61.40928 0 1 0 122.81856 0 61.40928 61.40928 0 1 0-122.81856 0Z" p-id="13986"></path><path d="M752.50176 512m-61.40928 0a61.40928 61.40928 0 1 0 122.81856 0 61.40928 61.40928 0 1 0-122.81856 0Z" p-id="13987"></path></svg>