<?xml version="1.0" encoding="UTF-8"?>
<svg width="46px" height="47px" viewBox="0 0 46 47" version="1.1" xmlns="http://www.w3.org/2000/svg" xmlns:xlink="http://www.w3.org/1999/xlink">
    <!-- Generator: Sketch 44.1 (41455) - http://www.bohemiancoding.com/sketch -->
    <title>开启</title>
    <desc>Created with Sketch.</desc>
    <defs></defs>
    <g id="Page-1" stroke="none" stroke-width="1" fill="none" fill-rule="evenodd">
        <g id="线-copy" transform="translate(-887.000000, -233.000000)" fill-rule="nonzero" fill="#3F3C40">
            <g id="2" transform="translate(91.000000, 217.000000)">
                <g id="开启" transform="translate(796.000000, 16.000000)">
                    <path d="M15.6329656,2.20546126 C16.1561864,2.02866095 16.7236657,2.30949031 16.900466,2.8327112 C17.0772664,3.35593208 16.796437,3.92341139 16.2732161,4.10021169 C7.81104903,6.95964219 2,14.9235922 2,24 C2,35.5979797 11.4020203,45 23,45 C34.5979797,45 44,35.5979797 44,24 C44,14.9165314 38.1799301,6.9477941 29.7083591,4.0939954 C29.1849734,3.91768365 28.9036143,3.35046679 29.0799261,2.82708106 C29.2562378,2.30369534 29.8234547,2.0223363 30.3468404,2.19864804 C39.6260689,5.32452045 46,14.0515949 46,24 C46,36.7025492 35.7025492,47 23,47 C10.2974508,47 0,36.7025492 0,24 C0,14.0593324 6.36405507,5.33749647 15.6329656,2.20546126 Z M22,1.00069463 C22,0.448026248 22.4438648,1.33226763e-15 23,1.33226763e-15 C23.5522847,1.33226763e-15 24,0.44746922 24,1.00069463 L24,22.9993054 C24,23.5519738 23.5561352,24 23,24 C22.4477153,24 22,23.5525308 22,22.9993054 L22,1.00069463 Z" id="Combined-Shape"></path>
                </g>
            </g>
        </g>
    </g>
</svg>