<?xml version="1.0" standalone="no"?><!DOCTYPE svg PUBLIC "-//W3C//DTD SVG 1.1//EN" "http://www.w3.org/Graphics/SVG/1.1/DTD/svg11.dtd"><svg t="1496992889118" class="icon" style="" viewBox="0 0 1024 1024" version="1.1" xmlns="http://www.w3.org/2000/svg" p-id="10144" xmlns:xlink="http://www.w3.org/1999/xlink" width="16" height="16"><defs><style type="text/css"></style></defs><path d="M128 256.113551 128 256.113551 128 767.886449C128 815.24458 166.103671 853.333333 213.316703 853.333333L810.683296 853.333333C857.78393 853.333333 896 815.081391 896 767.886449L896 256.113551C896 208.755419 857.896329 170.666667 810.683296 170.666667L213.316703 170.666667C166.216071 170.666667 128 208.918609 128 256.113551L128 256.113551ZM85.333333 256.113551C85.333333 185.35839 142.647977 128 213.316703 128L810.683296 128C881.36656 128 938.666667 185.097385 938.666667 256.113551L938.666667 767.886449C938.666667 838.641611 881.352023 896 810.683296 896L213.316703 896C142.63344 896 85.333333 838.902615 85.333333 767.886449L85.333333 256.113551 85.333333 256.113551Z" p-id="10145"></path><path d="M320 384m-42.666667 0a2 2 0 1 0 85.333333 0 2 2 0 1 0-85.333333 0Z" p-id="10146"></path><path d="M533.523452 705.542961 648.724574 541.796386C676.199302 503.409871 716.390656 506.006615 738.549847 547.519014 738.549847 547.519014 835.20742 724.324653 892.930921 860.976561L846.826837 861.709082C838.507706 842.553118 829.230786 822.074869 819.102261 800.451817 812.517835 786.394942 805.607795 771.927874 798.408958 757.110519 777.131381 713.314931 754.301261 668.415908 731.468267 624.906195 723.475524 609.675518 716.056416 595.712271 709.403582 583.32519 705.425929 575.9191 702.598086 570.703232 700.910035 567.611029 693.658325 554.025879 692.494057 553.951381 683.420002 566.629261L533.523452 768.395825 415.998534 652.251217C416.436591 652.701937 204.557886 871.913707 204.557886 871.913707L144.140232 872.873647 387.251953 622.620928C403.624975 605.766976 430.232973 605.678955 446.595223 622.514251L533.523452 705.542961Z" p-id="10147"></path></svg>