<?xml version="1.0" encoding="UTF-8"?>
<svg width="43px" height="43px" viewBox="0 0 43 43" version="1.1" xmlns="http://www.w3.org/2000/svg" xmlns:xlink="http://www.w3.org/1999/xlink">
    <!-- Generator: Sketch 44.1 (41455) - http://www.bohemiancoding.com/sketch -->
    <title>预查</title>
    <desc>Created with Sketch.</desc>
    <defs></defs>
    <g id="Page-1" stroke="none" stroke-width="1" fill="none" fill-rule="evenodd">
        <g id="线-copy" transform="translate(-117.000000, -356.000000)" fill-rule="nonzero" fill="#3F3C40">
            <g id="3" transform="translate(100.000000, 338.000000)">
                <g id="预查" transform="translate(17.000000, 18.000000)">
                    <path d="M19,38 C8.50658975,38 0,29.4934102 0,19 C0,8.50658975 8.50658975,0 19,0 C29.4934102,0 38,8.50658975 38,19 C38,29.4934102 29.4934102,38 19,38 Z M19,36 C28.3888407,36 36,28.3888407 36,19 C36,9.61115925 28.3888407,2 19,2 C9.61115925,2 2,9.61115925 2,19 C2,28.3888407 9.61115925,36 19,36 Z M33.8284271,33.8284271 C34.2189514,33.4379028 34.8578056,33.443592 35.2443896,33.830176 L42.3119596,40.8977461 C42.7034498,41.2892362 42.7069555,41.9204615 42.3137085,42.3137085 C41.9231842,42.7042328 41.2843301,42.6985436 40.8977461,42.3119596 L33.830176,35.2443896 C33.4386858,34.8528994 33.4351802,34.2216741 33.8284271,33.8284271 Z" id="Combined-Shape"></path>
                </g>
            </g>
        </g>
    </g>
</svg>