<?xml version="1.0" encoding="UTF-8"?>
<svg width="36px" height="36px" viewBox="0 0 36 36" version="1.1" xmlns="http://www.w3.org/2000/svg" xmlns:xlink="http://www.w3.org/1999/xlink">
    <!-- Generator: Sketch 44.1 (41455) - http://www.bohemiancoding.com/sketch -->
    <title>二维码</title>
    <desc>Created with Sketch.</desc>
    <defs></defs>
    <g id="Page-1" stroke="none" stroke-width="1" fill="none" fill-rule="evenodd">
        <g id="线-copy" transform="translate(-672.000000, -239.000000)" fill-rule="nonzero" fill="#3F3C40">
            <g id="2" transform="translate(91.000000, 217.000000)">
                <g id="二维码" transform="translate(581.000000, 22.000000)">
                    <path d="M2,3.00585866 L2,12.9941413 C2,13.5502354 2.44991848,14 3.00585866,14 L12.9941413,14 C13.5502354,14 14,13.5500815 14,12.9941413 L14,3.00585866 C14,2.44976457 13.5500815,2 12.9941413,2 L3.00585866,2 C2.44976457,2 2,2.44991848 2,3.00585866 Z M0,3.00585866 C0,1.34550213 1.34504186,0 3.00585866,0 L12.9941413,0 C14.6544979,0 16,1.34504186 16,3.00585866 L16,12.9941413 C16,14.6544979 14.6549581,16 12.9941413,16 L3.00585866,16 C1.34550213,16 0,14.6549581 0,12.9941413 L0,3.00585866 Z M0,23.0058587 C0,21.3455021 1.34504186,20 3.00585866,20 L12.9941413,20 C14.6544979,20 16,21.3450419 16,23.0058587 L16,32.9941413 C16,34.6544979 14.6549581,36 12.9941413,36 L3.00585866,36 C1.34550213,36 0,34.6549581 0,32.9941413 L0,23.0058587 Z M20,3.00585866 C20,1.34550213 21.3450419,0 23.0058587,0 L32.9941413,0 C34.6544979,0 36,1.34504186 36,3.00585866 L36,12.9941413 C36,14.6544979 34.6549581,16 32.9941413,16 L23.0058587,16 C21.3455021,16 20,14.6549581 20,12.9941413 L20,3.00585866 Z M22,3.00585866 L22,12.9941413 C22,13.5502354 22.4499185,14 23.0058587,14 L32.9941413,14 C33.5502354,14 34,13.5500815 34,12.9941413 L34,3.00585866 C34,2.44976457 33.5500815,2 32.9941413,2 L23.0058587,2 C22.4497646,2 22,2.44991848 22,3.00585866 Z M2,23.0058587 L2,32.9941413 C2,33.5502354 2.44991848,34 3.00585866,34 L12.9941413,34 C13.5502354,34 14,33.5500815 14,32.9941413 L14,23.0058587 C14,22.4497646 13.5500815,22 12.9941413,22 L3.00585866,22 C2.44976457,22 2,22.4499185 2,23.0058587 Z M6,7.0093689 C6,6.45190985 6.44335318,6 7.0093689,6 L8.9906311,6 C9.54809015,6 10,6.44335318 10,7.0093689 L10,8.9906311 C10,9.54809015 9.55664682,10 8.9906311,10 L7.0093689,10 C6.45190985,10 6,9.55664682 6,8.9906311 L6,7.0093689 Z M6,27.0093689 C6,26.4519098 6.44335318,26 7.0093689,26 L8.9906311,26 C9.54809015,26 10,26.4433532 10,27.0093689 L10,28.9906311 C10,29.5480902 9.55664682,30 8.9906311,30 L7.0093689,30 C6.45190985,30 6,29.5566468 6,28.9906311 L6,27.0093689 Z M26,7.0093689 C26,6.45190985 26.4433532,6 27.0093689,6 L28.9906311,6 C29.5480902,6 30,6.44335318 30,7.0093689 L30,8.9906311 C30,9.54809015 29.5566468,10 28.9906311,10 L27.0093689,10 C26.4519098,10 26,9.55664682 26,8.9906311 L26,7.0093689 Z M23,23.9953976 C23,23.4456547 23.4438648,23 24,23 C24.5522847,23 25,23.4556644 25,23.9953976 L25,32.0046024 C25,32.5543453 24.5561352,33 24,33 C23.4477153,33 23,32.5443356 23,32.0046024 L23,23.9953976 Z M27,23.9953976 C27,23.4456547 27.4438648,23 28,23 C28.5522847,23 29,23.4556644 29,23.9953976 L29,32.0046024 C29,32.5543453 28.5561352,33 28,33 C27.4477153,33 27,32.5443356 27,32.0046024 L27,23.9953976 Z M31,23.9953976 C31,23.4456547 31.4438648,23 32,23 C32.5522847,23 33,23.4556644 33,23.9953976 L33,32.0046024 C33,32.5543453 32.5561352,33 32,33 C31.4477153,33 31,32.5443356 31,32.0046024 L31,23.9953976 Z" id="Combined-Shape"></path>
                </g>
            </g>
        </g>
    </g>
</svg>