<?xml version="1.0" encoding="UTF-8"?>
<svg width="54px" height="46px" viewBox="0 0 54 46" version="1.1" xmlns="http://www.w3.org/2000/svg" xmlns:xlink="http://www.w3.org/1999/xlink">
    <!-- Generator: Sketch 44.1 (41455) - http://www.bohemiancoding.com/sketch -->
    <title>刷新群列表</title>
    <desc>Created with Sketch.</desc>
    <defs></defs>
    <g id="Page-1" stroke="none" stroke-width="1" fill="none" fill-rule="evenodd">
        <g id="线-copy" transform="translate(-113.000000, -114.000000)" fill-rule="nonzero" fill="#3F3C40">
            <g id="1" transform="translate(100.000000, 97.000000)">
                <g id="刷新群列表" transform="translate(13.000000, 17.000000)">
                    <path d="M15.7871143,26.4088796 C12.2695191,24.3871917 9.9,20.5870775 9.9,16.2324247 C9.9,9.75775983 15.1382684,4.50900687 21.6,4.50900687 C28.0617316,4.50900687 33.3,9.75775983 33.3,16.2324247 C33.3,20.5870927 30.9304643,24.3872183 27.4128487,26.4089009 C36.3719267,27.8987358 43.2,35.695793 43.2,45.0981986 C43.2,45.5962498 42.7970563,46 42.3,46 C41.8029437,46 41.4,45.5962498 41.4,45.0981986 C41.4,35.6265241 33.742732,27.9558426 24.2918863,27.9558426 L18.9081137,27.9558426 C9.45535909,27.9558426 1.8,35.6284368 1.8,45.0981986 C1.8,45.5962498 1.39705627,46 0.9,46 C0.402943725,46 0,45.5962498 0,45.0981986 C0,35.697523 6.8266163,27.8988422 15.7871143,26.4088796 L15.7871143,26.4088796 Z M21.6,26.1522398 C27.067619,26.1522398 31.5,21.7109873 31.5,16.2324247 C31.5,10.7538621 27.067619,6.31260962 21.6,6.31260962 C16.132381,6.31260962 11.7,10.7538621 11.7,16.2324247 C11.7,21.7109873 16.132381,26.1522398 21.6,26.1522398 Z M36.292829,20.8531876 C36.3203264,20.8374298 36.3489215,20.8229673 36.3785705,20.8099129 C39.9469894,19.238742 42.3,15.6971048 42.3,11.7234179 C42.3,6.24485525 37.867619,1.80360275 32.4,1.80360275 C30.6114374,1.80360275 28.8943553,2.27869729 27.3875332,3.16704421 C26.959129,3.41960986 26.4075029,3.27636948 26.1554418,2.84710786 C25.9033806,2.41784624 26.0463349,1.86511603 26.474739,1.61255038 C28.2563618,0.562194728 30.2882405,0 32.4,0 C38.8617316,0 44.1,5.24875296 44.1,11.7234179 C44.1,15.5528156 42.2505202,19.0429933 39.2811889,21.207327 C47.7496446,23.1225801 54,30.7088123 54,39.6873904 C54,40.1854415 53.5970563,40.5891918 53.1,40.5891918 C52.6029437,40.5891918 52.2,40.1854415 52.2,39.6873904 C52.2,30.746739 45.3501338,23.331827 36.5159967,22.6034831 C36.0206145,22.5626405 35.6520712,22.1271407 35.6928322,21.6307671 C35.7229166,21.2644086 35.96756,20.9672836 36.292829,20.8531876 L36.292829,20.8531876 Z" id="Combined-Shape"></path>
                </g>
            </g>
        </g>
    </g>
</svg>