<?xml version="1.0" encoding="UTF-8"?>
<svg width="16px" height="14px" viewBox="0 0 16 14" version="1.1" xmlns="http://www.w3.org/2000/svg" xmlns:xlink="http://www.w3.org/1999/xlink">
    <!-- Generator: Sketch 44.1 (41455) - http://www.bohemiancoding.com/sketch -->
    <title>Shape</title>
    <desc>Created with Sketch.</desc>
    <defs></defs>
    <g id="Page-2" stroke="none" stroke-width="1" fill="none" fill-rule="evenodd">
        <g id="云控平台-绑定状态--未绑定" transform="translate(-307.000000, -129.000000)" fill-rule="nonzero" fill="#99A9BF">
            <g id="Group-6" transform="translate(40.000000, 111.000000)">
                <g id="刷新" transform="translate(265.000000, 15.000000)">
                    <path d="M15.3295182,13.9247728 L17.8727668,9.52217659 L16.0746947,9.52217659 C15.8351273,5.88268836 12.8105978,3 9.10806949,3 C5.24864289,3 2.12723323,6.12706677 2.12723323,9.98474549 C2.12723323,13.8406219 5.25587463,16.9683014 9.1152832,16.9683014 C10.846953,16.9683014 12.4279645,16.3348533 13.6487411,15.2925097 L12.7142948,14.0893439 C11.7520937,14.9322052 10.4954468,15.4477988 9.1152832,15.4477988 C6.0964345,15.4477988 3.64865939,13.0008246 3.64865939,9.98472747 C3.64865939,6.96681004 6.0964345,4.52050267 9.1152832,4.52050267 C11.9779189,4.52050267 14.3161718,6.7218008 14.551952,9.52215855 L12.7863237,9.52215855 L15.3295182,13.9247728 Z" id="Shape"></path>
                </g>
            </g>
        </g>
    </g>
</svg>