<?xml version="1.0" standalone="no"?><!DOCTYPE svg PUBLIC "-//W3C//DTD SVG 1.1//EN" "http://www.w3.org/Graphics/SVG/1.1/DTD/svg11.dtd"><svg t="1503475253728" class="icon" style="" viewBox="0 0 1024 1024" version="1.1" xmlns="http://www.w3.org/2000/svg" p-id="10276" xmlns:xlink="http://www.w3.org/1999/xlink" width="16" height="16"><defs><style type="text/css"></style></defs><path d="M854.396207 173.570127 741.418087 173.570127 741.418087 78.357626c0-11.308557-9.157567-20.47738-20.466124-20.47738s-20.466124 9.168824-20.466124 20.47738l0 95.213525-373.506762 0L326.979076 78.357626c0-11.308557-9.157567-20.47738-20.466124-20.47738s-20.466124 9.168824-20.466124 20.47738l0 95.213525-102.286618 0c-69.161173 0-127.957277 61.991889-127.957277 135.667889l0 498.967172c0 76.125795 59.97086 138.984425 127.957277 138.984425l670.635997 0c66.336848 0 118.28908-61.543681 118.28908-138.984425L972.685287 309.238017C972.685287 233.06822 922.983305 173.570127 854.396207 173.570127zM931.753039 808.206212c0 54.858422-33.602306 97.02887-77.356832 97.02887L183.760211 905.235083c-44.998867 0-87.025029-44.029796-87.025029-97.02887L96.735182 309.238017c0-51.958372 39.661302-94.735641 87.025029-94.735641l102.286618 0 0 83.986833c0 11.308557 9.157567 20.47738 20.466124 20.47738s20.466124-9.168824 20.466124-20.47738l0-83.986833 373.506762 0 0 83.986833c0 11.308557 9.157567 20.47738 20.466124 20.47738s20.466124-9.168824 20.466124-20.47738l0-83.986833 112.978121 0c45.239344 0 77.356832 41.912575 77.356832 94.735641L931.753039 808.206212z" p-id="10277"></path><path d="M234.881518 434.513208l562.818409 0 0 40.932248-562.818409 0 0-40.932248Z" p-id="10278"></path><path d="M234.881518 598.2422l562.818409 0 0 40.932248-562.818409 0 0-40.932248Z" p-id="10279"></path><path d="M234.881518 756.854661l353.040638 0 0 40.932248-353.040638 0 0-40.932248Z" p-id="10280"></path></svg>