<?xml version="1.0" standalone="no"?><!DOCTYPE svg PUBLIC "-//W3C//DTD SVG 1.1//EN" "http://www.w3.org/Graphics/SVG/1.1/DTD/svg11.dtd"><svg t="1501062342306" class="icon" style="" viewBox="0 0 1024 1024" version="1.1" xmlns="http://www.w3.org/2000/svg" p-id="12985" xmlns:xlink="http://www.w3.org/1999/xlink" width="16" height="16"><defs><style type="text/css"></style></defs><path d="M896.2 63.9H128c-35.2 0-64 28.8-64 64v768.3c0 35.2 28.8 64 64 64h768.2c35.2 0 64-28.8 64-64V127.9c0-35.2-28.8-64-64-64z m-607.4 65h446.6l0.1 0.1v319.3l-0.1 0.1H288.8l-0.1-0.1V129l0.1-0.1z m607.4 767.2l-0.1 0.1h-768l-0.1-0.1v-768l0.1-0.1h96.6v320.5c0 35.2 28.8 64 64 64h446.8c35.2 0 64-28.8 64-64V128.9v-0.9h96.6l0.1 0.1v768z" fill="" p-id="12986"></path><path d="M640.1 414.6c17.7 0 32-14.3 32-32V195.2c0-17.7-14.3-32-32-32s-32 14.3-32 32v187.4c0 17.7 14.4 32 32 32z" fill="" p-id="12987"></path></svg>