<?xml version="1.0" standalone="no"?><!DOCTYPE svg PUBLIC "-//W3C//DTD SVG 1.1//EN" "http://www.w3.org/Graphics/SVG/1.1/DTD/svg11.dtd"><svg t="1496999513259" class="icon" style="" viewBox="0 0 1024 1024" version="1.1" xmlns="http://www.w3.org/2000/svg" p-id="2140" xmlns:xlink="http://www.w3.org/1999/xlink" width="16" height="16"><defs><style type="text/css"></style></defs><path d="M941.93289 857.362772l-182.025707-181.948959c46.393633-63.555501 74.125231-141.552923 74.125231-226.091318 0-212.1764-172.574451-384.824529-384.678196-384.824529-212.1764 0-384.824529 172.648129-384.824529 384.824529 0 212.136491 172.648129 384.715035 384.824529 384.715035 84.467787 0 162.410973-27.695782 225.938845-74.034157l182.061522 181.988868c23.36515 23.349801 61.23362 23.343661 84.59263-0.01228C965.315436 918.611741 965.309296 880.724853 941.93289 857.362772zM172.814927 449.322495c0-152.49923 124.039038-276.538267 276.538267-276.538267 152.390759 0 276.392958 124.039038 276.392958 276.538267 0 152.423505-124.002199 276.429797-276.392958 276.429797C296.854988 725.752292 172.814927 601.747024 172.814927 449.322495z" p-id="2141" fill="#8a8a8a"></path></svg>