<?xml version="1.0" standalone="no"?><!DOCTYPE svg PUBLIC "-//W3C//DTD SVG 1.1//EN" "http://www.w3.org/Graphics/SVG/1.1/DTD/svg11.dtd"><svg t="1500953559982" class="icon" style="" viewBox="0 0 1024 1024" version="1.1" xmlns="http://www.w3.org/2000/svg" p-id="8151" xmlns:xlink="http://www.w3.org/1999/xlink" width="16" height="16"><defs><style type="text/css"></style></defs><path d="M147.07673 919.03846c-37.459147 0-67.936275-29.732162-67.936275-66.278519L79.140455 325.154521c0-36.545334 30.476105-66.278519 67.936275-66.278519l168.670537 0 0 50.719148L147.07673 309.59515c-9.493212 0-17.220197 6.979972-17.220197 15.559371l0 527.60542c0 8.579399 7.722892 15.559371 17.220197 15.559371l685.424818 0c9.520841 0 17.271362-6.978948 17.271362-15.559371L849.77291 663.480017l50.716078 0 0 189.279924c0 36.546358-30.499641 66.278519-67.986417 66.278519L147.07673 919.03846 147.07673 919.03846 147.07673 919.03846zM435.741175 736.069265c-0.268106-1.451048-24.26566-149.120272 72.531943-287.757796 67.858504-97.205902 178.627307-163.866115 329.431941-198.310601l-183.833889-99.470479 25.683962-47.435359 266.129196 143.968949L789.836843 493.416759l-45.579081-28.845978 101.936647-161.185053C710.960401 334.876953 612.325963 393.801994 552.856523 478.686267c-42.241057 60.259432-57.20077 125.359103-62.309114 169.359222-5.485945 47.248094-1.260713 81.296561-0.759293 85.023442l1.081635 8.645914-53.952796 0.688685L435.741175 736.069265 435.741175 736.069265 435.741175 736.069265zM443.262476 734.673475c-1.108241-5.964852-22.048155-148.31493 71.282486-281.985326 74.102718-106.150622 200.310142-175.168532 374.980323-205.228151l6.579859 38.075177c-163.896814 28.180829-281.486976 91.672886-349.512279 188.763155-84.209914 120.130008-64.538899 258.554684-64.37517 259.876796L443.262476 734.673475 443.262476 734.673475 443.262476 734.673475 443.262476 734.673475zM787.462772 482.864426l-32.654724-20.667715 125.21584-197.995423L664.23624 147.44512l18.403139-33.985022 252.196883 136.436392L787.462772 482.864426 787.462772 482.864426 787.462772 482.864426zM787.462772 482.864426" p-id="8152"></path></svg>