<?xml version="1.0" encoding="UTF-8"?>
<svg width="48px" height="48px" viewBox="0 0 48 48" version="1.1" xmlns="http://www.w3.org/2000/svg" xmlns:xlink="http://www.w3.org/1999/xlink">
    <!-- Generator: Sketch 44.1 (41455) - http://www.bohemiancoding.com/sketch -->
    <title>同步小号二维码</title>
    <desc>Created with Sketch.</desc>
    <defs></defs>
    <g id="Page-1" stroke="none" stroke-width="1" fill="none" fill-rule="evenodd">
        <g id="线-copy" transform="translate(-776.000000, -113.000000)" fill-rule="nonzero" fill="#3F3C40">
            <g id="1" transform="translate(100.000000, 97.000000)">
                <g id="同步小号二维码" transform="translate(676.000000, 16.000000)">
                    <path d="M2.76923077,34.5370778 C6.31696572,42.4602334 14.4917881,48 24,48 C36.7580066,48 47.1153846,38.0262285 47.1153846,25.7037037 L45.1153846,25.7037037 C45.1153846,36.9044182 35.6699728,46 24,46 C12.3300272,46 2.88461538,36.9044182 2.88461538,25.7037037 L0.884615385,25.7037037 C0.884615385,26.4605901 0.923691544,27.2086152 1,27.946012 L1,41.037037 L2.76923077,41.037037 L2.76923077,34.5370778 L2.76923077,34.5370778 Z M45.2307692,13.4629222 L45.2307692,13.4629222 L45.2307692,6.96296296 L47,6.96296296 L47,20.053988 C47.0763085,20.7913848 47.1153846,21.5394099 47.1153846,22.2962963 L45.1153846,22.2962963 C45.1153846,11.0955818 35.6699728,2 24,2 C12.3300272,2 2.88461538,11.0955818 2.88461538,22.2962963 L0.884615385,22.2962963 C0.884615385,9.97377146 11.2419934,0 24,0 C33.5082119,0 41.6830343,5.53976664 45.2307692,13.4629222 Z M13,16.9981014 C13,15.3401781 14.33653,14 15.9981014,14 L20.0018986,14 C21.6598219,14 23,15.33653 23,16.9981014 L23,21.0018986 C23,22.6598219 21.66347,24 20.0018986,24 L15.9981014,24 C14.3401781,24 13,22.66347 13,21.0018986 L13,16.9981014 Z M15,16.9981014 L15,21.0018986 C15,21.5576783 15.443529,22 15.9981014,22 L20.0018986,22 C20.5576783,22 21,21.556471 21,21.0018986 L21,16.9981014 C21,16.4423217 20.556471,16 20.0018986,16 L15.9981014,16 C15.4423217,16 15,16.443529 15,16.9981014 Z M13,28.9981014 C13,27.3401781 14.33653,26 15.9981014,26 L20.0018986,26 C21.6598219,26 23,27.33653 23,28.9981014 L23,33.0018986 C23,34.6598219 21.66347,36 20.0018986,36 L15.9981014,36 C14.3401781,36 13,34.66347 13,33.0018986 L13,28.9981014 Z M15,28.9981014 L15,33.0018986 C15,33.5576783 15.443529,34 15.9981014,34 L20.0018986,34 C20.5576783,34 21,33.556471 21,33.0018986 L21,28.9981014 C21,28.4423217 20.556471,28 20.0018986,28 L15.9981014,28 C15.4423217,28 15,28.443529 15,28.9981014 Z M25,16.9981014 C25,15.3401781 26.33653,14 27.9981014,14 L32.0018986,14 C33.6598219,14 35,15.33653 35,16.9981014 L35,21.0018986 C35,22.6598219 33.66347,24 32.0018986,24 L27.9981014,24 C26.3401781,24 25,22.66347 25,21.0018986 L25,16.9981014 Z M27,16.9981014 L27,21.0018986 C27,21.5576783 27.443529,22 27.9981014,22 L32.0018986,22 C32.5576783,22 33,21.556471 33,21.0018986 L33,16.9981014 C33,16.4423217 32.556471,16 32.0018986,16 L27.9981014,16 C27.4423217,16 27,16.443529 27,16.9981014 Z M27,27.990778 C27,27.4435864 27.4438648,27 28,27 C28.5522847,27 29,27.4509752 29,27.990778 L29,32.009222 C29,32.5564136 28.5561352,33 28,33 C27.4477153,33 27,32.5490248 27,32.009222 L27,27.990778 Z M31,27.9970301 C31,27.4463856 31.4438648,27 32,27 C32.5522847,27 33,27.4530363 33,27.9970301 L33,34.0029699 C33,34.5536144 32.5561352,35 32,35 C31.4477153,35 31,34.5469637 31,34.0029699 L31,27.9970301 Z" id="Combined-Shape"></path>
                </g>
            </g>
        </g>
    </g>
</svg>