<?xml version="1.0" encoding="UTF-8"?>
<svg width="48px" height="48px" viewBox="0 0 48 48" version="1.1" xmlns="http://www.w3.org/2000/svg" xmlns:xlink="http://www.w3.org/1999/xlink">
    <!-- Generator: Sketch 44.1 (41455) - http://www.bohemiancoding.com/sketch -->
    <title>同步小号头像</title>
    <desc>Created with Sketch.</desc>
    <defs></defs>
    <g id="Page-1" stroke="none" stroke-width="1" fill="none" fill-rule="evenodd">
        <g id="线-copy" transform="translate(-556.000000, -233.000000)" fill-rule="nonzero" fill="#3F3C40">
            <g id="2" transform="translate(91.000000, 217.000000)">
                <g id="同步小号头像" transform="translate(465.000000, 16.000000)">
                    <path d="M2.76923077,34.5370778 C6.31696572,42.4602334 14.4917881,48 24,48 C36.7580066,48 47.1153846,38.0262285 47.1153846,25.7037037 L45.1153846,25.7037037 C45.1153846,36.9044182 35.6699728,46 24,46 C12.3300272,46 2.88461538,36.9044182 2.88461538,25.7037037 L0.884615385,25.7037037 C0.884615385,26.4605901 0.923691544,27.2086152 1,27.946012 L1,41.037037 L2.76923077,41.037037 L2.76923077,34.5370778 L2.76923077,34.5370778 Z M45.2307692,13.4629222 L45.2307692,13.4629222 L45.2307692,6.96296296 L47,6.96296296 L47,20.053988 C47.0763085,20.7913848 47.1153846,21.5394099 47.1153846,22.2962963 L45.1153846,22.2962963 C45.1153846,11.0955818 35.6699728,2 24,2 C12.3300272,2 2.88461538,11.0955818 2.88461538,22.2962963 L0.884615385,22.2962963 C0.884615385,9.97377146 11.2419934,0 24,0 C33.5082119,0 41.6830343,5.53976664 45.2307692,13.4629222 Z M19.1193974,23.0179455 C17.8120744,21.7461844 17,19.9679272 17,18 C17,14.1340068 20.1340068,11 24,11 C27.8659932,11 31,14.1340068 31,18 C31,19.9679336 30.1879203,21.7461959 28.8805899,23.0179579 C32.650569,23.375817 36,29.0107663 36,33.5 C36,34.0522847 35.5522847,34.5 35,34.5 C34.4477153,34.5 34,34.0522847 34,33.5 C34,29.8238324 31.0572905,25 28.5034217,25 L19.4965783,25 C16.9421637,25 14,29.8199053 14,33.5 C14,34.0522847 13.5522847,34.5 13,34.5 C12.4477153,34.5 12,34.0522847 12,33.5 C12,29.0069071 15.3492616,23.375565 19.1193974,23.0179455 L19.1193974,23.0179455 Z M24,23 C26.7614237,23 29,20.7614237 29,18 C29,15.2385763 26.7614237,13 24,13 C21.2385763,13 19,15.2385763 19,18 C19,20.7614237 21.2385763,23 24,23 Z" id="Combined-Shape"></path>
                </g>
            </g>
        </g>
    </g>
</svg>