<?xml version="1.0" encoding="UTF-8"?>
<svg width="46px" height="40px" viewBox="0 0 46 40" version="1.1" xmlns="http://www.w3.org/2000/svg" xmlns:xlink="http://www.w3.org/1999/xlink">
    <!-- Generator: Sketch 44.1 (41455) - http://www.bohemiancoding.com/sketch -->
    <title>拍照</title>
    <desc>Created with Sketch.</desc>
    <defs></defs>
    <g id="Page-1" stroke="none" stroke-width="1" fill="none" fill-rule="evenodd">
        <g id="线-copy" transform="translate(-227.000000, -117.000000)" fill-rule="nonzero" fill="#3F3C40">
            <g id="1" transform="translate(100.000000, 97.000000)">
                <g id="拍照" transform="translate(127.000000, 20.000000)">
                    <path d="M32,6 L40.0040411,6 C43.3160498,6 46,8.6857067 46,12 L46,34 C46,37.3133276 43.3102088,40 39.9954787,40 L6.00452127,40 C2.68816631,40 0,37.3146767 0,34 L0,12 C0,8.6830859 2.6832933,6 6.00676358,6 L14,6 L14,2.99810135 C14,1.34321625 15.3413088,0 16.9940603,0 L29.0059397,0 C30.662078,0 32,1.33698404 32,2.99810135 L32,6 Z M14.5442737,8 L6.00676358,8 C3.78782819,8 2,9.78769001 2,12 L2,34 C2,36.2096332 3.79226233,38 6.00452127,38 L39.9954787,38 C42.2061584,38 44,36.2082384 44,34 L44,12 C44,9.7899834 42.2111873,8 40.0040411,8 L31.5808292,8 L30,8 L30,2.99810135 C30,2.44186764 29.5578224,2 29.0059397,2 L16.9940603,2 C16.446515,2 16,2.44715002 16,2.99810135 L16,8 L14.5442737,8 Z M23,34 C18.0294373,34 14,29.9705627 14,25 C14,20.0294373 18.0294373,16 23,16 C27.9705627,16 32,20.0294373 32,25 C32,29.9705627 27.9705627,34 23,34 Z M23,32 C26.8659932,32 30,28.8659932 30,25 C30,21.1340068 26.8659932,18 23,18 C19.1340068,18 16,21.1340068 16,25 C16,28.8659932 19.1340068,32 23,32 Z M10,19 C7.790861,19 6,17.209139 6,15 C6,12.790861 7.790861,11 10,11 C12.209139,11 14,12.790861 14,15 C14,17.209139 12.209139,19 10,19 Z M10,17 C11.1045695,17 12,16.1045695 12,15 C12,13.8954305 11.1045695,13 10,13 C8.8954305,13 8,13.8954305 8,15 C8,16.1045695 8.8954305,17 10,17 Z" id="Combined-Shape"></path>
                </g>
            </g>
        </g>
    </g>
</svg>