<?xml version="1.0" encoding="UTF-8"?>
<svg width="48px" height="48px" viewBox="0 0 48 48" version="1.1" xmlns="http://www.w3.org/2000/svg" xmlns:xlink="http://www.w3.org/1999/xlink">
    <!-- Generator: Sketch 44.1 (41455) - http://www.bohemiancoding.com/sketch -->
    <title>时间</title>
    <desc>Created with Sketch.</desc>
    <defs></defs>
    <g id="Page-1" stroke="none" stroke-width="1" fill="none" fill-rule="evenodd">
        <g id="线-copy" transform="translate(-226.000000, -233.000000)" fill-rule="nonzero" fill="#3F3C40">
            <g id="2" transform="translate(91.000000, 217.000000)">
                <g id="时间" transform="translate(159.000000, 40.000000) scale(-1, 1) translate(-159.000000, -40.000000) translate(135.000000, 16.000000)">
                    <path d="M25,23 L37.9991283,23 C38.5518945,23 39,23.4438648 39,24 C39,24.5522847 38.5553691,25 37.9991283,25 L24.0008717,25 C23.725437,25 23.4759883,24.8897941 23.2950156,24.7104063 C23.1119304,24.529181 23,24.28083 23,24.0066023 L23,7.99339768 C23,7.44475929 23.4438648,7 24,7 C24.5522847,7 25,7.44494629 25,7.99339768 L25,23 L25,23 Z M24,48 C10.745166,48 0,37.254834 0,24 C0,10.745166 10.745166,0 24,0 C37.254834,0 48,10.745166 48,24 C48,37.254834 37.254834,48 24,48 Z M24,46 C36.1502645,46 46,36.1502645 46,24 C46,11.8497355 36.1502645,2 24,2 C11.8497355,2 2,11.8497355 2,24 C2,36.1502645 11.8497355,46 24,46 Z" id="Combined-Shape"></path>
                </g>
            </g>
        </g>
    </g>
</svg>