<?xml version="1.0" standalone="no"?><!DOCTYPE svg PUBLIC "-//W3C//DTD SVG 1.1//EN" "http://www.w3.org/Graphics/SVG/1.1/DTD/svg11.dtd"><svg t="1498619425647" class="icon" style="" viewBox="0 0 1024 1024" version="1.1" xmlns="http://www.w3.org/2000/svg" p-id="1601" xmlns:xlink="http://www.w3.org/1999/xlink" width="16" height="16"><defs><style type="text/css"></style></defs><path d="M512 958.444958c-247.368924 0-447.904193-200.535269-447.904193-447.904193 0-247.371994 200.535269-447.904193 447.904193-447.904193 247.371994 0 447.904193 200.532199 447.904193 447.904193C959.904193 757.909689 759.371994 958.444958 512 958.444958zM512 118.620631c-216.449727 0-391.916041 175.466314-391.916041 391.919111 0 216.449727 175.466314 391.916041 391.916041 391.916041s391.916041-175.466314 391.916041-391.916041C903.916041 294.086945 728.449727 118.620631 512 118.620631zM721.954803 566.527894l-209.954803 0-55.988152 0 0-55.988152L456.011848 272.588305c0-7.732102 6.26775-13.996782 13.996782-13.996782l27.993564 0c7.732102 0 13.996782 6.264681 13.996782 13.996782l0 237.95246 209.954803 0c7.729032 0 13.996782 6.264681 13.996782 13.996782l0 27.993564C735.952608 560.263214 729.684858 566.527894 721.954803 566.527894z" p-id="1602"></path></svg>