<?xml version="1.0" standalone="no"?><!DOCTYPE svg PUBLIC "-//W3C//DTD SVG 1.1//EN" "http://www.w3.org/Graphics/SVG/1.1/DTD/svg11.dtd"><svg t="1499151576428" class="icon" style="" viewBox="0 0 1024 1024" version="1.1" xmlns="http://www.w3.org/2000/svg" p-id="5954" xmlns:xlink="http://www.w3.org/1999/xlink" width="32" height="32"><defs><style type="text/css"></style></defs><path d="M61.89 462.202c0-28.45 6.613-47.638 19.845-57.566 13.23-9.927 34.396-14.891 63.503-14.891 13.229 0 34.068-0.17 62.517-0.508 28.45-0.34 58.708-0.667 90.777-0.984 32.07-0.318 63.323-0.815 93.76-1.492 30.442-0.678 54.583-1.006 72.426-0.985 25.803 0 45.975-2.476 60.517-7.43 14.542-4.952 21.485-16.362 20.829-34.226 0-13.231 0.327-28.937 0.984-47.12 0.656-18.182 0.656-34.227 0-48.134 0-23.157 6.287-37.88 18.859-44.167 12.573-6.287 28.777-1.82 48.61 13.4 19.856 15.876 43.342 34.397 70.458 55.565a16665.821 16665.821 0 0 1 83.347 65.503c28.449 22.5 56.559 44.493 84.33 65.979 27.773 21.486 52.253 40.504 73.44 57.057 19.179 15.219 29.107 29.94 29.784 44.165 0.676 14.224-7.928 29.273-25.814 45.15-19.178 15.876-41.668 34.227-67.471 55.056a13825.964 13825.964 0 0 0-79.885 64.995 33230.8 33230.8 0 0 1-81.38 66.488c-26.797 21.825-50.441 41.339-70.931 58.55-23.157 19.177-42.176 26.617-57.057 22.32-14.881-4.295-22.321-18.353-22.321-42.165 0-7.281-0.17-15.388-0.51-24.322a4805.32 4805.32 0 0 1-0.982-28.29c-0.318-9.928-0.646-19.686-0.984-29.273-0.34-9.59-0.51-18.354-0.51-26.292-0.655-16.531-5.947-26.945-15.875-31.241-9.927-4.298-23.485-6.12-40.673-5.463-19.176 0-44.313 0.17-75.407 0.509-31.097 0.338-63.513 0.666-97.256 0.984-33.74 0.319-66.487 0.816-98.237 1.492-31.752 0.677-57.553 1.005-77.41 0.985-8.593 0-17.526-0.666-26.796-2.001-9.272-1.334-17.707-4.477-25.306-9.431-7.6-4.951-14.043-11.895-19.337-20.828-5.292-8.932-7.938-20.67-7.938-35.212 0-17.865-0.168-34.895-0.507-51.087-0.34-16.194-0.835-34.545-1.492-55.057l0.093-0.033z" fill="" p-id="5955"></path></svg>