<?xml version="1.0" encoding="UTF-8"?>
<svg width="43px" height="43px" viewBox="0 0 43 43" version="1.1" xmlns="http://www.w3.org/2000/svg" xmlns:xlink="http://www.w3.org/1999/xlink">
    <!-- Generator: Sketch 44.1 (41455) - http://www.bohemiancoding.com/sketch -->
    <title>解绑群</title>
    <desc>Created with Sketch.</desc>
    <defs></defs>
    <g id="Page-1" stroke="none" stroke-width="1" fill="none" fill-rule="evenodd">
        <g id="线-copy" transform="translate(-888.000000, -116.000000)" fill-rule="nonzero" fill="#3F3C40">
            <g id="1" transform="translate(100.000000, 97.000000)">
                <g id="解绑群" transform="translate(810.000000, 41.414214) rotate(-45.000000) translate(-810.000000, -41.414214) translate(786.000000, 24.414214)">
                    <path d="M20.8184269,22 C21.3707116,22 21.8184269,22.4477153 21.8184269,23 C21.8184269,23.5522847 21.3707116,24 20.8184269,24 L4.31278768,24 C2.34154677,24 0.828427125,22.1717388 0.828427125,19.9966488 L0.828427125,12.0033512 C0.828427125,9.82873833 2.33991128,8 4.31278768,8 L20.8184269,8 C21.3707116,8 21.8184269,8.44771525 21.8184269,9 C21.8184269,9.55228475 21.3707116,10 20.8184269,10 L4.31278768,10 C3.53765169,10 2.82842712,10.8580878 2.82842712,12.0033512 L2.82842712,19.9966488 C2.82842712,21.1419374 3.53858352,22 4.31278768,22 L20.8184269,22 Z M28,24 C27.4477153,24 27,23.5522847 27,23 C27,22.4477153 27.4477153,22 28,22 L44.5056392,22 C45.2798434,22 45.9899998,21.1419374 45.9899998,19.9966488 L45.9899998,12.0033512 C45.9899998,10.8580878 45.2807752,10 44.5056392,10 L28,10 C27.4477153,10 27,9.55228475 27,9 C27,8.44771525 27.4477153,8 28,8 L44.5056392,8 C46.4785156,8 47.9899998,9.82873833 47.9899998,12.0033512 L47.9899998,19.9966488 C47.9899998,22.1717388 46.4768801,24 44.5056392,24 L28,24 Z M17,16 C17,15.4477153 17.4446309,15 18.0008717,15 L31.9991283,15 C32.5518945,15 33,15.4438648 33,16 C33,16.5522847 32.5553691,17 31.9991283,17 L18.0008717,17 C17.4481055,17 17,16.5561352 17,16 Z M24,32.162204 L24,30.1809418 C24,29.6149261 24.4477153,29.1715729 25,29.1715729 C25.5561352,29.1715729 26,29.6234827 26,30.1809418 L26,32.162204 C26,32.7282197 25.5522847,33.1715729 25,33.1715729 C24.4438648,33.1715729 24,32.719663 24,32.162204 Z M29.6292901,30.5294846 L28.638659,28.8136612 C28.3556512,28.3234772 28.5217074,27.7156644 29,27.4395221 C29.4816272,27.1614545 30.0919803,27.3308875 30.3707099,27.8136612 L31.361341,29.5294846 C31.6443488,30.0196686 31.4782926,30.6274813 31,30.9036237 C30.5183728,31.1816913 29.9080197,31.0122583 29.6292901,30.5294846 Z M20.3707099,30.5294846 C20.0919803,31.0122583 19.4816272,31.1816913 19,30.9036237 C18.5217074,30.6274813 18.3556512,30.0196686 18.638659,29.5294846 L19.6292901,27.8136612 C19.9080197,27.3308875 20.5183728,27.1614545 21,27.4395221 C21.4782926,27.7156644 21.6443488,28.3234772 21.361341,28.8136612 L20.3707099,30.5294846 Z M24,1.0093689 C24,0.451909848 24.4438648,0 25,0 C25.5522847,0 26,0.443353176 26,1.0093689 L26,2.9906311 C26,3.54809015 25.5561352,4 25,4 C24.4477153,4 24,3.55664682 24,2.9906311 L24,1.0093689 Z M29.6292901,2.6420883 C29.9080197,2.1593146 30.5183728,1.9898816 31,2.26794919 C31.4782926,2.54409157 31.6443488,3.15190431 31.361341,3.6420883 L30.3707099,5.3579117 C30.0919803,5.8406854 29.4816272,6.0101184 29,5.73205081 C28.5217074,5.45590843 28.3556512,4.84809569 28.638659,4.3579117 L29.6292901,2.6420883 Z M20.3707099,2.6420883 L21.361341,4.3579117 C21.6443488,4.84809569 21.4782926,5.45590843 21,5.73205081 C20.5183728,6.0101184 19.9080197,5.8406854 19.6292901,5.3579117 L18.638659,3.6420883 C18.3556512,3.15190431 18.5217074,2.54409157 19,2.26794919 C19.4816272,1.9898816 20.0919803,2.1593146 20.3707099,2.6420883 Z" id="Combined-Shape"></path>
                </g>
            </g>
        </g>
    </g>
</svg>