<?xml version="1.0" encoding="UTF-8"?>
<svg width="50px" height="46px" viewBox="0 0 50 46" version="1.1" xmlns="http://www.w3.org/2000/svg" xmlns:xlink="http://www.w3.org/1999/xlink">
    <!-- Generator: Sketch 44.1 (41455) - http://www.bohemiancoding.com/sketch -->
    <title>上传群成员列表</title>
    <desc>Created with Sketch.</desc>
    <defs></defs>
    <g id="Page-1" stroke="none" stroke-width="1" fill="none" fill-rule="evenodd">
        <g id="线-copy" transform="translate(-115.000000, -234.000000)" fill-rule="nonzero" fill="#3F3C40">
            <g id="2" transform="translate(91.000000, 217.000000)">
                <g id="上传群成员列表" transform="translate(24.000000, 17.000000)">
                    <path d="M17.5412382,24.2845857 C13.632799,22.0427528 11,17.828838 11,13 C11,5.82029825 16.8202983,0 24,0 C31.1797017,0 37,5.82029825 37,13 C37,17.8291319 34.3668805,22.0432658 30.4580482,24.284995 C34.4211657,24.9430269 38.0892832,26.720819 41.0695569,29.4122911 C41.4794354,29.7824506 41.511634,30.4147963 41.1414746,30.8246748 C40.7713151,31.2345533 40.1389693,31.266752 39.7290908,30.8965925 C36.2597467,27.7634431 31.7645032,26 26.9909848,26 L21.0090152,26 C10.5059545,26 2,34.5080755 2,45.0090152 C2,45.5613 1.55228475,46.0090152 1,46.0090152 C0.44771525,46.0090152 0,45.5613 0,45.0090152 C0,34.5846847 7.58512922,25.9367928 17.5412382,24.2845857 Z M47.5355339,37.0208153 L44,33.4852814 L40.4644661,37.0208153 C40.0739418,37.4113396 39.4407768,37.4113396 39.0502525,37.0208153 C38.6597282,36.630291 38.6597282,35.997126 39.0502525,35.6066017 L42.5923074,32.0645469 C43.368775,31.2880793 44.6344766,31.2913309 45.4076926,32.0645469 L48.9497475,35.6066017 C49.3402718,35.997126 49.3402718,36.630291 48.9497475,37.0208153 C48.5592232,37.4113396 47.9260582,37.4113396 47.5355339,37.0208153 Z M44,35 C44.5522847,35 45,35.4556644 45,35.9953976 L45,44.0046024 C45,44.5543453 44.5561352,45 44,45 C43.4477153,45 43,44.5443356 43,44.0046024 L43,35.9953976 C43,35.4456547 43.4438648,35 44,35 Z M24,24 C30.0751322,24 35,19.0751322 35,13 C35,6.92486775 30.0751322,2 24,2 C17.9248678,2 13,6.92486775 13,13 C13,19.0751322 17.9248678,24 24,24 Z" id="Combined-Shape"></path>
                </g>
            </g>
        </g>
    </g>
</svg>