<?xml version="1.0" encoding="UTF-8"?>
<svg width="46px" height="46px" viewBox="0 0 46 46" version="1.1" xmlns="http://www.w3.org/2000/svg" xmlns:xlink="http://www.w3.org/1999/xlink">
    <!-- Generator: Sketch 44.1 (41455) - http://www.bohemiancoding.com/sketch -->
    <title>人物信息</title>
    <desc>Created with Sketch.</desc>
    <defs></defs>
    <g id="Page-1" stroke="none" stroke-width="1" fill="none" fill-rule="evenodd">
        <g id="线-copy" transform="translate(-667.000000, -114.000000)" fill-rule="nonzero" fill="#3F3C40">
            <g id="1" transform="translate(100.000000, 97.000000)">
                <g id="人物信息" transform="translate(567.000000, 17.000000)">
                    <path d="M23,46 C10.2974508,46 0,35.7025492 0,23 C0,10.2974508 10.2974508,0 23,0 C35.7025492,0 46,10.2974508 46,23 C46,35.7025492 35.7025492,46 23,46 Z M23,44 C34.5979797,44 44,34.5979797 44,23 C44,11.4020203 34.5979797,2 23,2 C11.4020203,2 2,11.4020203 2,23 C2,34.5979797 11.4020203,44 23,44 Z M23,15 C22.4477153,15 22,14.5522847 22,14 C22,13.4477153 22.4477153,13 23,13 C23.5522847,13 24,13.4477153 24,14 C24,14.5522847 23.5522847,15 23,15 Z M22,18.0008717 C22,17.4481055 22.4438648,17 23,17 C23.5522847,17 24,17.4446309 24,18.0008717 L24,31.9991283 C24,32.5518945 23.5561352,33 23,33 C22.4477153,33 22,32.5553691 22,31.9991283 L22,18.0008717 Z" id="Combined-Shape"></path>
                </g>
            </g>
        </g>
    </g>
</svg>